<?xml version="1.0" encoding="utf-8"?>
<!DOCTYPE svg PUBLIC "-//W3C//DTD SVG 1.1//EN" "http://www.w3.org/Graphics/SVG/1.1/DTD/svg11.dtd">
<svg version="1.1" xmlns="http://www.w3.org/2000/svg" width="200px" height="200px" viewBox="0 0 200 200" preserveAspectRatio="xMidYMid meet">
 <g fill="#1c82c5">
  <path d="M188.9 100 C 188.9 149.1 149.1 189 100 189 50.9 189 11 149.1 11 100 11 50.9 50.9 11 100 11 149.1 11 188.9 50.9 188.9 100 Z M83 187.5 "/>
 </g>
 <g fill="#ffffff">
  <path d="M188.9 100 C 188.9 149.1 149.1 189 100 189 50.9 189 11 149.1 11 100 11 50.9 50.9 11 100 11 149.1 11 188.9 50.9 188.9 100 Z M83 187.5  m 13 -13.5 c 1 0 2 1 2.4 2.2 0.9 3.6 2.9 0.7 2.1 -3.1 -0.7 -3.2 -2.5 -4.3 -2.5 -1.6 0 2.3 -2.7 1.8 -3.5 -0.7 -0.6 -2.2 -0.7 -2.1 -1.7 0.9 -0.6 1.8 -0.7 4 -0.3 5 0.8 1.6 0.9 1.6 1.2 -0.4 0.3 -1.4 1.2 -2.3 2.3 -2.3 z  m 15.4 0.7 c 1.6 -2.5 -0.5 -5.1 -4.1 -5.5 -3.7 -0.4 -5.8 1.9 -4.9 5.2 1 3.9 6.7 4 9 0.3 z  m -21.6 0.5 c 0.3 -0.9 -0.3 -1.1 -2.2 -0.6 -1.9 0.4 -2.8 0.2 -3.2 -1.1 -1 -2.5 1.2 -4.2 3.6 -2.7 2.4 1.5 3 1.5 3 0.2 0 -1.5 -3.9 -3.2 -6 -2.5 -2.5 0.8 -3.6 5 -1.9 7.1 1.4 1.7 6 1.5 6.7 -0.4 z  m 32.1 -1.7 c 0.9 -0.9 1.1 -2.3 0.7 -3.9 -0.5 -2.1 -1.2 -2.6 -3.9 -2.6 -5.4 0 -7.5 4 -4.1 7.5 1.7 1.7 4.9 1.3 7.3 -1 z  m -41.3 0.3 c 0.4 -0.6 -0.5 -2.1 -2.2 -3.5 -1.9 -1.5 -2.4 -2.3 -1.3 -2.3 0.8 0 2.1 0.6 2.8 1.3 1.1 1 1.3 0.9 0.9 -0.2 -0.6 -2.1 -3.3 -3.5 -5.2 -2.8 -2.5 1 -1.9 3.2 1.2 4.7 2.3 1.1 2.4 1.4 0.8 1.8 -1 0.2 -2.2 -0.2 -2.7 -0.9 -0.4 -0.7 -1.2 -1 -1.6 -0.5 -1 1 2.5 3.6 4.8 3.6 1 0 2.1 -0.5 2.5 -1.2 z  m 52 -3.9 c 0.3 -0.5 -0.9 -0.6 -2.5 -0.3 -2.6 0.6 -3.1 0.3 -3.7 -2 -0.3 -1.4 -1.2 -2.6 -2 -2.6 -0.7 0 -1.1 0.6 -0.9 1.3 2.4 6.9 2.2 6.7 5.5 5.6 1.6 -0.6 3.3 -1.5 3.6 -2 z  m -64.1 -1.9 c 0.8 -1.6 1.5 -3.4 1.5 -4 0 -1.5 -2.1 -1.2 -4 0.5 -1.5 1.4 -1.6 1.2 -1.2 -1.5 0.6 -4 -1.8 -4 -4.2 0.1 -2 3.5 -1.4 5.2 0.9 2.3 1.5 -1.8 1.5 -1.8 0.9 0.9 -0.7 3.1 0.1 3.4 2.8 1 1.9 -1.7 1.9 -1.6 1.3 1 -0.9 3.6 0.1 3.4 2 -0.3 z  m 79.3 -7.9 c 7.8 -6.5 14.5 -15.5 19.9 -26.7 10.6 -22.3 11.4 -45 2.4 -64.9 -10.6 -23.4 -28.6 -38.4 -52.1 -43.6 -14 -3.1 -31.3 -2.4 -42.6 1.8 -10.6 3.8 -20.8 10 -28.4 17 -11.1 10.2 -21 28 -24.1 42.8 -1 5.2 -1 6.4 0.5 9.2 1.8 3.7 7.6 7.3 15.6 9.9 4.8 1.6 9.6 1.8 38.5 1.9 36.1 0 37.8 0.2 42.3 6 2.8 3.6 2.8 6 -0.3 12.2 -7 13.9 -21.1 20.4 -44 20.1 -11 -0.1 -11 -0.1 -0.9 -0.8 10.4 -0.8 20.3 -3.4 26.3 -7.1 3.4 -2.1 3.4 -2.1 -1.7 -4.9 -2.7 -1.6 -7.7 -5.4 -11 -8.5 -7.3 -6.8 -10.5 -7.6 -18.1 -4.5 -2.9 1.1 -9.7 3.2 -14.9 4.6 -5.3 1.3 -9.8 2.7 -10.1 2.9 -1 1 16.5 0.4 22.1 -0.7 5.1 -1.1 6 -1 7.5 0.4 1.5 1.5 1.3 1.8 -1.8 3.7 -3 1.8 -12.4 5.9 -21.3 9.1 -1.6 0.6 -2.6 1.3 -2.4 1.6 0.3 0.2 3.4 1.1 6.9 1.9 5.7 1.3 5.8 1.5 1.7 1 -2.7 -0.2 -6 -0.7 -7.5 -1 -1.6 -0.3 0.4 1.1 4.2 3 17.8 8.8 41.3 8.6 58.7 -0.7 7.6 -4 17.2 -13.3 22.1 -21.5 10.1 -16.6 10.5 -45.2 0.7 -55.4 -3.1 -3.3 -4.3 -3.9 -7.8 -3.9 -3.6 0 -4.4 0.4 -6.9 4 -1.5 2.2 -3.3 4 -3.9 4 -3.4 0 -4.5 -6.3 -1.8 -10.5 2.1 -3.3 1.5 -3.1 -3.2 0.5 -4.9 3.9 -8 3.7 -7.6 -0.5 0.6 -5.8 8.8 -11.4 16.8 -11.5 22.3 -0.1 37.3 25.1 33.4 56.5 -1.9 16.1 -8.9 37.4 -18 55.5 -3.1 6.1 -3.1 6.1 0.9 4.1 2.2 -1.2 6.6 -4.3 9.9 -7 z  m -88.3 1.9 c 1.8 -3.4 1.8 -4 0.5 -4 -0.8 0 -4 5.1 -4 6.5 0 1.6 2.2 0.1 3.5 -2.5 z  m -1 -5 c 0.9 -1.5 -0.3 -1.2 -3.1 0.6 -2.5 1.7 -2.5 1.7 -1.3 -1 1.5 -3.2 0.8 -4.1 -2.1 -2.6 -2 1.1 -2.1 1 -1.1 -0.9 1.3 -2.4 1.4 -3.1 0.3 -3.1 -1.2 0 -4.3 7 -3.7 8.1 0.3 0.5 1.8 0.1 3.2 -0.8 2.6 -1.7 2.6 -1.7 1.4 0.5 -1.8 3.4 -0.4 4.5 2.9 2.2 1.6 -1.2 3.2 -2.5 3.5 -3 z  m -11.5 -5.4 c 0 -0.7 -0.5 -1.7 -1.1 -2.3 -0.6 -0.6 -0.9 -1.7 -0.6 -2.5 0.4 -0.9 0.8 -0.5 1.2 1 0.8 2.4 2.5 3 2.5 0.9 0 -1.9 -3.7 -5 -4.9 -4.2 -1.4 0.8 -1.4 4.2 -0.1 5 1.3 0.8 1.3 2.5 0 2.5 -0.6 0 -1.6 -1.2 -2.2 -2.7 -1 -2.5 -1.2 -2.6 -1.6 -0.8 -0.2 1.1 0.4 2.6 1.7 3.7 2.3 1.8 5.1 1.5 5.1 -0.6 z  m -5 -12.8 c 0 -1.1 -0.8 -1 -3.2 0.3 -1.9 1 -2 0.9 -1.3 -0.7 2.4 -5.9 2 -6.4 -3.4 -3.5 -2.3 1.2 -3 2 -2.2 2.6 0.7 0.4 1.8 0.2 2.4 -0.4 2 -2 2.6 -1.1 1.1 1.9 -2.2 4.3 -0.9 5.4 3.1 2.7 1.9 -1.2 3.5 -2.5 3.5 -2.9 z  m -6.3 -11.2 c -0.4 -1.1 -1.9 -1.6 -4.7 -1.6 -4 0 -5.3 1.3 -2.5 2.4 0.9 0.3 1.5 1.8 1.5 3.8 0 3.3 0 3.3 3.1 0.1 2 -2 3 -3.7 2.6 -4.7 z  m 69.2 -1.2 c 2.6 -3.3 2.6 -5.5 0.2 -8.5 -1.4 -1.8 -2.9 -2.4 -6.1 -2.4 -3.2 0 -4.7 0.6 -6.1 2.4 -2.4 3 -2.4 5.2 0.2 8.5 1.6 2 2.9 2.6 5.9 2.6 3 0 4.3 -0.6 5.9 -2.6 z  m -71.4 -3.4 c 0.4 -0.6 -0.7 -1 -2.7 -1 -3.3 -0.1 -3.3 -0.1 -0.5 -1.8 3.1 -1.9 3.1 -3.6 -0.1 -4 -2.2 -0.3 -2.2 -0.3 0 -2.2 3.2 -2.6 0.4 -2.6 -3.3 0.1 -3.8 2.7 -3.7 3.9 0.3 3.9 3.2 0 3.2 0 0.8 1.7 -1.4 0.9 -2.7 1.8 -2.9 1.9 -0.1 0.1 0 0.7 0.4 1.3 0.8 1.4 7.2 1.4 8 0.1 z  m -6.7 -14.1 c 0.6 -4 2.2 -4.7 2.2 -0.8 0.1 2.9 0.2 3.1 1.1 1.6 1.6 -2.7 0.3 -6.7 -2.1 -6.7 -1.6 0 -2 0.7 -2 3 0 1.7 -0.5 3 -1.1 3 -0.7 0 -0.9 -1.1 -0.5 -3 0.7 -3.6 -1.1 -4.1 -2 -0.6 -0.7 2.8 1.2 6.9 2.9 6.3 0.7 -0.2 1.4 -1.4 1.5 -2.8 z "/>
  <path d="M 104.6 174.3 c -0.4 -0.9 0 -2.3 0.9 -3.2 1.3 -1.4 1.7 -1.4 3.1 0.1 0.9 0.9 1.4 2.4 1.1 3.2 -0.8 2.1 -4.3 2 -5.1 -0.1 z "/>
  <path d="M 115.6 172.3 c -0.4 -0.9 0 -2.3 0.9 -3.2 1.3 -1.4 1.7 -1.4 3.1 0.1 0.9 0.9 1.4 2.4 1.1 3.2 -0.8 2.1 -4.3 2 -5.1 -0.1 z "/>
  <path d="M 97 88.4 c 0 -0.3 2.2 -3.4 4.8 -6.8 2.8 -3.5 4.7 -6.8 4.4 -7.8 -0.6 -2.9 1.5 -2 4.4 1.7 1.6 2.1 2.3 3.9 1.8 4.4 -6 5.7 -10.9 9.1 -13 9.1 -1.3 0 -2.4 -0.3 -2.4 -0.6 z "/>
 </g>
</svg>