<?xml version="1.0" encoding="UTF-8"?>
<svg xmlns="http://www.w3.org/2000/svg" version="1.1" viewBox="0 0 432 432">
  <defs>
    <style>
      .cls-1 {
        fill: #1b81c5;
      }
    </style>
  </defs>
  <!-- Generator: Adobe Illustrator 28.7.9, SVG Export Plug-In . SVG Version: 1.2.0 Build 218)  -->
  <g>
    <g id="Layer_1">
      <g>
        <path class="cls-1" d="M297.48,92c-37.74-10.3-58.34,12.54-58.34,12.54-15.85,19.05-.94,46.82-.94,46.82l-26.2,32.99s8.82,5.77,18.59-2.44l9.78-8.21s13.03-12.36,13.5-12.86c.48-.49,25.93-28.67,26.06-34.71,0,0,17.57-4.41,26.03,2.17,17.15,8.87,22.22,42.09,22.22,42.09,7.94,41.9-6.95,82.36-6.95,82.36,0,0-23.01,67.83-98.18,88.72,0,0-67.48,22.09-136.11-20.89,0,0,122.14,32.13,169.82-23.02,0,0,73.34-72.72-62.3-67.55,0,0-154.71,20.95-170.45-35.63,0,0,13.79-142.7,164.73-174.36,0,0,145.46-25.97,206.56,108.99,0,0,36.82,61.66,7.49,142.3,0,0-24.49,84.48-96.28,115.92,0,0,33.64-58.17,49.66-128.27,16.03-79.49-8.81-120.89-8.81-120.89,0,0-15.97-34.89-49.88-46.05Z"/>
        <path class="cls-1" d="M268.18,146.39s-25.52-6.92-4.4-31.87l-1.98-2.24s-30.95,31.42-31.12,4.19c0,0-3.16,8.98,3.03,28.52,0,0,2.78-3.7,7.9-2.64,0,0,10.08,16,14.62,18.02,0,0,9.75-11.26,11.96-13.98Z"/>
        <g>
          <path class="cls-1" d="M231.65,303.53s-29.97-14.69-51.6-38.72c0,0-10.8-12.42-33.66-1.19,0,0-19.55,8.14-66.46,18.53,0,0,35.06,7.11,63.5-2.85,0,0,9.76-3.94,12.82.45,0,0,8.69,3.78-.38,10.68,0,0-31.04,15.76-65.92,26.57,0,0,80.34,29.38,141.7-13.48Z"/>
          <path class="cls-1" d="M238.38,270.01c-.34,9.83-9.43,17.5-20.3,17.12-10.86-.38-19.39-8.67-19.04-18.51.34-9.84,9.43-17.5,20.3-17.13,10.87.38,19.4,8.67,19.05,18.51Z"/>
        </g>
        <g>
          <path class="cls-1" d="M21.58,225.14c-.62,1.91-1.02,4.68-.73,7.51.42,4.2,2.21,6.4,4.32,6.09,1.95-.28,2.88-2.11,3.5-6.32.74-5.06,2.29-8.34,5.26-8.56,3.28-.24,5.95,3.36,6.56,8.91.32,2.92.11,5.09-.25,6.43-.93-.26-1.4-.4-2.34-.67.25-1,.61-3,.33-5.61-.43-3.95-2.25-5.32-3.69-5.19-1.97.18-2.81,2.1-3.46,6.39-.8,5.25-2.09,8.11-5.15,8.62-3.22.54-6.6-2.55-7.36-10.14-.31-3.1.02-6.58.65-8.36.94.36,1.41.54,2.36.89Z"/>
          <path class="cls-1" d="M22.02,254.25c7.66-4.95,11.55-7.27,19.43-11.61.24,1.53.36,2.29.62,3.8-3.96,2.17-5.94,3.28-9.85,5.59-2.41,1.43-4.82,2.82-6.69,3.82,0,.04.01.05.02.09,2.14.01,4.77.36,7.63.68,4.47.51,6.69.72,11.14,1.05.33,1.45.51,2.18.86,3.62-3.8,2.5-5.68,3.78-9.41,6.42-2.18,1.53-4.36,3.06-6.36,4.17,0,.03.01.05.02.09,2.38-.12,4.84-.05,7.59-.03,4.47.1,6.7.1,11.14.02.42,1.36.64,2.04,1.09,3.39-8.86.13-13.34,0-22.32-.62-.46-1.58-.68-2.37-1.11-3.96,3.8-2.8,5.72-4.16,9.59-6.81,2.37-1.63,4.23-2.76,6.19-3.7,0-.03-.01-.05-.02-.08-2.14.08-4.28.02-7.16-.33-4.62-.49-6.94-.78-11.58-1.47-.34-1.64-.51-2.47-.83-4.13Z"/>
          <path class="cls-1" d="M37.66,286.05c-2.87-.1-4.31-.17-7.2-.36-.53-1.51-.79-2.27-1.3-3.8,9.2.91,13.78,1.13,22.84,1.14.6,1.55.9,2.32,1.53,3.85-6.29,6.91-9.32,10.53-15.06,18.09-.71-1.46-1.05-2.2-1.73-3.68,1.86-2.34,2.8-3.49,4.71-5.77-1.62-3.72-2.38-5.62-3.8-9.46ZM43.08,293.9c1.76-2.07,2.65-3.08,4.46-5.1,1.02-1.14,2.02-2.03,2.99-2.9-.01-.03-.02-.04-.03-.07-1.29.14-2.63.25-4,.27-2.63-.02-3.95-.05-6.6-.15,1.21,3.22,1.84,4.81,3.19,7.95Z"/>
          <path class="cls-1" d="M40.4,308.84c7.4-4.1,11.1-6.15,18.5-10.25.67,1.32,1.01,1.98,1.71,3.28-2.11,5.11-3.08,7.73-4.83,13.08-1.01,3.1-1.98,5.72-3.03,8.08.03.02.04.03.07.05,2.14-1.88,4.23-3.39,6.95-5.25,2.93-1.99,4.39-2.99,7.31-4.98.69,1.07,1.04,1.6,1.75,2.65-6.91,4.88-10.36,7.33-17.27,12.21-.86-1.26-1.28-1.89-2.11-3.17,1.54-5.52,2.4-8.23,4.31-13.52,1.05-2.9,2.26-5.72,3.61-8.06-.03-.04-.05-.05-.08-.09-2.22,1.51-4.38,2.85-7.42,4.61-3.13,1.81-4.7,2.71-7.83,4.52-.67-1.26-1.01-1.89-1.66-3.16Z"/>
          <path class="cls-1" d="M63.26,337.79c.47,1.77,1.58,4.05,3.29,5.98,2.55,2.87,5.15,3.46,6.71,2,1.44-1.35,1.24-3.26-.47-6.75-2.06-4.19-2.46-7.51-.16-9.41,2.54-2.1,6.55-1.01,9.96,2.76,1.8,1.98,2.75,3.73,3.17,4.94-.9.35-1.35.52-2.25.86-.32-.89-1.06-2.6-2.67-4.37-2.43-2.68-4.62-2.63-5.71-1.69-1.5,1.29-1.18,3.19.53,6.76,2.1,4.37,2.54,7.28.32,9.45-2.33,2.28-6.69,1.93-11.29-3.26-1.88-2.12-3.4-4.88-3.79-6.56.95-.29,1.42-.43,2.36-.72Z"/>
          <path class="cls-1" d="M78.74,359.27c3.67-8.21,5.63-12.23,9.77-20.08.98,1.01,1.48,1.51,2.47,2.49-2.1,3.94-3.12,5.94-5.11,9.97-1.21,2.49-2.46,4.94-3.47,6.79.02.02.04.03.06.06,1.74-1.24,4.05-2.51,6.53-3.93,3.88-2.21,5.79-3.35,9.56-5.69,1.01.91,1.52,1.36,2.54,2.26-1.8,4.12-2.67,6.2-4.34,10.4-.98,2.45-1.97,4.89-3.02,6.91.03.02.04.03.06.05,1.86-1.47,3.88-2.85,6.11-4.43,3.66-2.52,5.46-3.81,8.99-6.46,1.03.81,1.55,1.21,2.59,1.99-7.07,5.24-10.74,7.74-18.32,12.48-1.17-.95-1.76-1.43-2.92-2.4,1.65-4.36,2.51-6.52,4.29-10.8,1.09-2.63,2.01-4.57,3.12-6.44-.02-.02-.03-.03-.06-.05-1.69,1.31-3.45,2.51-5.96,3.92-3.99,2.32-6.02,3.45-10.14,5.63-1.12-1.05-1.68-1.58-2.79-2.65Z"/>
          <path class="cls-1" d="M116.57,363.27c-4.58,7.1-6.87,10.65-11.45,17.75-1.17-.81-1.76-1.23-2.92-2.06,4.71-7.01,7.07-10.52,11.78-17.54,1.03.75,1.55,1.12,2.59,1.85Z"/>
          <path class="cls-1" d="M134.37,387.36c1.02-2.78,2.27-6.11,3.38-8.49-.04-.02-.06-.03-.1-.05-1.79,1.89-3.83,3.82-6.25,5.86-3.4,2.87-5.14,4.28-8.69,7.02-.95-.51-1.42-.77-2.37-1.3.3-4.44.5-6.65.99-11.04.37-3.24.85-6.15,1.5-8.69-.03-.02-.04-.02-.06-.04-1.37,2.25-3.29,5.22-5.07,7.84-2.05,2.99-3.08,4.48-5.15,7.46-1.15-.72-1.72-1.09-2.86-1.83,5.02-6.81,7.5-10.23,12.38-17.14,1.36.87,2.05,1.3,3.43,2.14-.57,4.44-.8,6.67-1.17,11.16-.28,2.84-.55,5.34-.95,7.62.04.02.06.03.11.06,1.57-1.57,3.45-3.19,5.65-5.04,3.44-2.8,5.12-4.24,8.4-7.18,1.45.72,2.19,1.07,3.67,1.75-2.78,8.02-4.15,12.05-6.79,20.12-1.28-.57-1.92-.86-3.18-1.46,1.25-3.51,1.88-5.27,3.15-8.77Z"/>
          <path class="cls-1" d="M148.33,399.6c1.27,1.25,3.32,2.61,5.71,3.37,3.55,1.12,6.06.26,6.62-1.8.52-1.91-.66-3.42-3.82-5.51-3.8-2.5-5.77-5.11-4.81-7.92,1.06-3.12,4.87-4.3,9.62-2.87,2.5.75,4.21,1.73,5.2,2.54-.58.77-.87,1.15-1.45,1.92-.73-.59-2.25-1.65-4.48-2.32-3.37-1.02-5.14.17-5.58,1.55-.6,1.88.59,3.34,3.82,5.49,3.96,2.63,5.9,4.86,5.14,7.87-.79,3.16-4.74,5.17-11.15,3.14-2.62-.83-5.25-2.37-6.41-3.59.64-.74.96-1.11,1.6-1.86Z"/>
          <path class="cls-1" d="M188.22,411.52c-1.44.33-4.3.48-7.84-.09-8.21-1.31-13.4-6.48-11.83-13.23,1.49-6.45,7.89-9.45,15.96-8.19,3.24.51,5.23,1.31,6.09,1.79-.43.85-.65,1.27-1.09,2.11-1.24-.66-3.04-1.28-5.23-1.62-6.18-.96-10.86,1.22-12.01,6.65-1.07,5.06,2.23,9.26,9.24,10.35,2.26.35,4.63.33,6.2-.02.2.9.31,1.35.52,2.24Z"/>
          <path class="cls-1" d="M198.29,391.97c-.27,3.53-.4,5.3-.67,8.83,5.37.42,8.07.53,13.49.56.02-3.54.03-5.31.04-8.85,1.4,0,2.09,0,3.49-.01.12,8.46.18,12.69.3,21.15-1.56.02-2.34.03-3.9.02.02-3.97.03-5.95.05-9.91-5.49-.03-8.23-.15-13.66-.57-.3,3.95-.45,5.93-.75,9.89-1.52-.12-2.29-.18-3.81-.33.8-8.42,1.2-12.63,1.99-21.05,1.36.13,2.04.19,3.41.3Z"/>
          <path class="cls-1" d="M245.51,399.89c1.26,7.17-4.38,12.15-12.08,12.97-7.96.85-13.7-3.34-13.94-9.74-.26-6.71,4.86-11.24,12.05-12.03,7.35-.8,12.88,2.61,13.97,8.79ZM223.41,402.87c.27,4.51,3.94,8.41,10.01,7.75,6.11-.66,8.95-5.21,8.22-9.95-.65-4.15-4.16-7.97-10.02-7.34-5.82.63-8.48,4.9-8.2,9.54Z"/>
          <path class="cls-1" d="M274.62,392.26c2.37,6.88-2.65,12.75-10.34,14.83-7.96,2.14-14.39-1.09-15.6-7.38-1.27-6.59,3.21-11.88,10.4-13.83,7.34-2,13.5.45,15.54,6.38ZM252.61,398.83c.95,4.41,5.26,7.68,11.32,6.04,6.1-1.65,8.32-6.63,6.86-11.19-1.28-4-5.44-7.19-11.29-5.6-5.82,1.57-7.86,6.21-6.88,10.75Z"/>
          <path class="cls-1" d="M275.75,380.85c1.38-.52,2.07-.79,3.45-1.34,2.78,7.01,4.17,10.51,6.95,17.51,5.03-2.01,7.54-3.11,12.52-5.49.39.83.59,1.24.99,2.06-6.56,3.14-9.87,4.54-16.51,7.05-2.96-7.92-4.44-11.87-7.4-19.79Z"/>
        </g>
      </g>
    </g>
  </g>
</svg>